<svg width="948" height="226" viewBox="0 0 948 226" fill="none" xmlns="http://www.w3.org/2000/svg">
<rect width="72.1451" height="72.1451" transform="matrix(-1 0 0 1 216.944 153.421)" fill="#FFB930"/>
<rect width="72.1451" height="72.1451" transform="matrix(-1 0 0 1 216.944 9.13135)" fill="#FFB930"/>
<rect width="72.1451" height="72.1451" transform="matrix(-1 0 0 1 216.944 81.2764)" fill="#FED88E"/>
<rect width="72.1451" height="72.1451" transform="matrix(-1 0 0 1 144.799 153.421)" fill="#307CFF"/>
<rect width="72.1451" height="72.1451" transform="matrix(-1 0 0 1 144.799 9.13135)" fill="#61D3FE"/>
<rect width="72.1451" height="72.1451" transform="matrix(-1 0 0 1 72.6543 81.2764)" fill="#61D3FE"/>
<path d="M36.594 189.504L72.6539 225.566L72.6539 153.421L0.508795 153.421L36.594 189.504Z" fill="#307CFF"/>
<path d="M36.5708 45.2165L0.508786 81.2764L72.6539 81.2764L72.6539 9.13135L36.5708 45.2165Z" fill="#307CFF"/>
<path d="M108.519 117.349L144.453 81.2763L144.453 153.421L108.519 117.349Z" fill="#FF8730"/>
<path d="M258.513 112.517C258.513 102.094 260.768 92.8241 265.277 84.7063C269.787 76.4883 276.051 70.1244 284.069 65.6145C292.186 61.0044 301.356 58.6993 311.579 58.6993C324.106 58.6993 334.83 62.0066 343.749 68.6211C352.669 75.2356 358.632 84.2553 361.638 95.6803H333.377C331.272 91.2707 328.265 87.9133 324.357 85.6083C320.548 83.3032 316.189 82.1507 311.278 82.1507C303.361 82.1507 296.947 84.9067 292.036 90.4188C287.125 95.9309 284.67 103.297 284.67 112.517C284.67 121.737 287.125 129.104 292.036 134.616C296.947 140.128 303.361 142.884 311.278 142.884C316.189 142.884 320.548 141.731 324.357 139.426C328.265 137.121 331.272 133.764 333.377 129.354H361.638C358.632 140.779 352.669 149.799 343.749 156.413C334.83 162.928 324.106 166.185 311.579 166.185C301.356 166.185 292.186 163.93 284.069 159.42C276.051 154.81 269.787 148.446 265.277 140.328C260.768 132.21 258.513 122.94 258.513 112.517ZM427.29 166.485C417.368 166.485 408.248 164.18 399.93 159.57C391.712 154.96 385.148 148.546 380.237 140.328C375.426 132.01 373.021 122.689 373.021 112.367C373.021 102.044 375.426 92.774 380.237 84.556C385.148 76.338 391.712 69.9239 399.93 65.3138C408.248 60.7037 417.368 58.3987 427.29 58.3987C437.212 58.3987 446.282 60.7037 454.5 65.3138C462.818 69.9239 469.332 76.338 474.042 84.556C478.853 92.774 481.258 102.044 481.258 112.367C481.258 122.689 478.853 132.01 474.042 140.328C469.232 148.546 462.718 154.96 454.5 159.57C446.282 164.18 437.212 166.485 427.29 166.485ZM427.29 143.034C435.709 143.034 442.423 140.228 447.434 134.616C452.545 129.003 455.101 121.587 455.101 112.367C455.101 103.046 452.545 95.6302 447.434 90.1181C442.423 84.5059 435.709 81.6997 427.29 81.6997C418.771 81.6997 411.956 84.4557 406.845 89.9678C401.834 95.4799 399.329 102.946 399.329 112.367C399.329 121.687 401.834 129.154 406.845 134.766C411.956 140.278 418.771 143.034 427.29 143.034ZM535.096 59.902C546.22 59.902 555.942 62.1068 564.26 66.5165C572.578 70.9261 578.992 77.1397 583.502 85.1573C588.112 93.0746 590.417 102.245 590.417 112.668C590.417 122.99 588.112 132.16 583.502 140.178C578.992 148.195 572.528 154.409 564.11 158.819C555.791 163.228 546.12 165.433 535.096 165.433H495.56V59.902H535.096ZM533.442 143.184C543.164 143.184 550.73 140.529 556.142 135.217C561.554 129.905 564.26 122.389 564.26 112.668C564.26 102.946 561.554 95.3797 556.142 89.9678C550.73 84.556 543.164 81.85 533.442 81.85H521.266V143.184H533.442Z" fill="#307CFF"/>
<path d="M603.129 86.6606C603.53 75.9371 607.038 67.669 613.653 61.8563C620.267 56.0435 629.237 53.1372 640.561 53.1372C648.078 53.1372 654.492 54.44 659.804 57.0457C665.215 59.6514 669.274 63.2092 671.98 67.7191C674.786 72.229 676.19 77.2901 676.19 82.9023C676.19 89.5168 674.536 94.9287 671.229 99.1379C667.921 103.247 664.063 106.053 659.653 107.556V108.158C665.366 110.062 669.876 113.219 673.183 117.628C676.49 122.038 678.144 127.7 678.144 134.616C678.144 140.829 676.691 146.341 673.784 151.152C670.978 155.862 666.819 159.57 661.307 162.276C655.895 164.982 649.431 166.335 641.914 166.335C629.888 166.335 620.267 163.379 613.051 157.466C605.936 151.553 602.177 142.633 601.777 130.707H626.731C626.831 135.117 628.084 138.624 630.489 141.23C632.895 143.736 636.402 144.988 641.012 144.988C644.921 144.988 647.928 143.886 650.032 141.681C652.237 139.376 653.339 136.369 653.339 132.661C653.339 127.851 651.786 124.393 648.679 122.289C645.673 120.084 640.812 118.981 634.097 118.981H629.287V98.0856H634.097C639.209 98.0856 643.318 97.2337 646.424 95.53C649.631 93.7261 651.235 90.5691 651.235 86.0593C651.235 82.4514 650.233 79.6452 648.228 77.6408C646.224 75.6364 643.468 74.6342 639.96 74.6342C636.152 74.6342 633.296 75.7868 631.391 78.0918C629.587 80.3969 628.535 83.2531 628.234 86.6606H603.129Z" fill="#FF8730"/>
<path d="M749.621 165.433L727.673 125.596H721.509V165.433H695.803V59.902H738.947C747.265 59.902 754.331 61.3552 760.144 64.2615C766.057 67.1679 770.466 71.1767 773.373 76.2879C776.279 81.2988 777.732 86.9111 777.732 93.1247C777.732 100.14 775.728 106.404 771.719 111.916C767.81 117.428 761.998 121.337 754.281 123.642L778.634 165.433H749.621ZM721.509 107.406H737.444C742.154 107.406 745.662 106.253 747.967 103.948C750.372 101.643 751.575 98.3863 751.575 94.177C751.575 90.1683 750.372 87.0114 747.967 84.7063C745.662 82.4013 742.154 81.2487 737.444 81.2487H721.509V107.406ZM819.575 59.902V165.433H793.869V59.902H819.575ZM888.114 166.485C878.192 166.485 869.072 164.18 860.754 159.57C852.536 154.96 845.971 148.546 841.061 140.328C836.25 132.01 833.845 122.689 833.845 112.367C833.845 102.044 836.25 92.774 841.061 84.556C845.971 76.338 852.536 69.9239 860.754 65.3138C869.072 60.7037 878.192 58.3987 888.114 58.3987C898.035 58.3987 907.105 60.7037 915.323 65.3138C923.642 69.9239 930.156 76.338 934.866 84.556C939.677 92.774 942.082 102.044 942.082 112.367C942.082 122.689 939.677 132.01 934.866 140.328C930.056 148.546 923.541 154.96 915.323 159.57C907.105 164.18 898.035 166.485 888.114 166.485ZM888.114 143.034C896.532 143.034 903.247 140.228 908.258 134.616C913.369 129.003 915.925 121.587 915.925 112.367C915.925 103.046 913.369 95.6302 908.258 90.1181C903.247 84.5059 896.532 81.6997 888.114 81.6997C879.595 81.6997 872.78 84.4557 867.669 89.9678C862.658 95.4799 860.153 102.946 860.153 112.367C860.153 121.687 862.658 129.154 867.669 134.766C872.78 140.278 879.595 143.034 888.114 143.034Z" fill="#FFB930"/>
<path d="M277.081 194.195V213.468H272.386V201.91L268.076 213.468H264.287L259.949 201.882V213.468H255.254V194.195H260.8L266.209 207.538L271.562 194.195H277.081ZM290.506 205.781C290.506 204.207 290.799 202.825 291.384 201.635C291.988 200.445 292.803 199.53 293.828 198.89C294.853 198.249 295.997 197.929 297.26 197.929C298.34 197.929 299.282 198.148 300.088 198.587C300.911 199.027 301.543 199.603 301.982 200.317V198.148H306.677V213.468H301.982V211.299C301.524 212.013 300.884 212.59 300.06 213.029C299.255 213.468 298.312 213.688 297.232 213.688C295.988 213.688 294.853 213.368 293.828 212.727C292.803 212.068 291.988 211.144 291.384 209.954C290.799 208.746 290.506 207.355 290.506 205.781ZM301.982 205.808C301.982 204.637 301.653 203.712 300.994 203.035C300.353 202.358 299.566 202.019 298.632 202.019C297.699 202.019 296.903 202.358 296.244 203.035C295.603 203.694 295.283 204.609 295.283 205.781C295.283 206.952 295.603 207.886 296.244 208.581C296.903 209.258 297.699 209.597 298.632 209.597C299.566 209.597 300.353 209.258 300.994 208.581C301.653 207.904 301.982 206.98 301.982 205.808ZM330.418 213.468L325.75 207.044V213.468H321.056V193.151H325.75V204.381L330.39 198.148H336.183L329.814 205.836L336.238 213.468H330.418ZM363.451 205.561C363.451 206 363.424 206.458 363.369 206.934H352.743C352.817 207.886 353.119 208.618 353.649 209.13C354.199 209.625 354.867 209.872 355.654 209.872C356.825 209.872 357.64 209.377 358.097 208.389H363.094C362.838 209.396 362.371 210.302 361.694 211.107C361.035 211.912 360.202 212.544 359.195 213.002C358.189 213.459 357.063 213.688 355.818 213.688C354.318 213.688 352.981 213.368 351.81 212.727C350.639 212.086 349.723 211.171 349.064 209.981C348.406 208.792 348.076 207.401 348.076 205.808C348.076 204.216 348.396 202.825 349.037 201.635C349.696 200.445 350.611 199.53 351.783 198.89C352.954 198.249 354.299 197.929 355.818 197.929C357.301 197.929 358.619 198.24 359.772 198.862C360.925 199.484 361.822 200.372 362.463 201.525C363.122 202.678 363.451 204.024 363.451 205.561ZM358.646 204.326C358.646 203.52 358.372 202.88 357.823 202.404C357.274 201.928 356.587 201.69 355.764 201.69C354.976 201.69 354.308 201.919 353.759 202.376C353.228 202.834 352.899 203.484 352.771 204.326H358.646ZM409.36 198.148L399.75 220.744H394.699L398.213 212.947L391.98 198.148H397.224L400.766 207.73L404.28 198.148H409.36ZM429.013 213.688C427.512 213.688 426.158 213.368 424.95 212.727C423.76 212.086 422.817 211.171 422.122 209.981C421.445 208.792 421.106 207.401 421.106 205.808C421.106 204.234 421.454 202.852 422.149 201.662C422.845 200.454 423.797 199.53 425.005 198.89C426.213 198.249 427.567 197.929 429.068 197.929C430.569 197.929 431.923 198.249 433.131 198.89C434.339 199.53 435.291 200.454 435.987 201.662C436.682 202.852 437.03 204.234 437.03 205.808C437.03 207.382 436.673 208.773 435.959 209.981C435.264 211.171 434.303 212.086 433.077 212.727C431.869 213.368 430.514 213.688 429.013 213.688ZM429.013 209.625C429.91 209.625 430.67 209.295 431.292 208.636C431.933 207.977 432.253 207.035 432.253 205.808C432.253 204.582 431.942 203.639 431.319 202.98C430.715 202.321 429.965 201.992 429.068 201.992C428.153 201.992 427.393 202.321 426.789 202.98C426.185 203.621 425.883 204.564 425.883 205.808C425.883 207.035 426.176 207.977 426.762 208.636C427.366 209.295 428.116 209.625 429.013 209.625ZM465.631 198.148V213.468H460.936V211.382C460.46 212.059 459.81 212.608 458.987 213.029C458.181 213.432 457.284 213.633 456.296 213.633C455.125 213.633 454.09 213.377 453.194 212.864C452.297 212.333 451.601 211.574 451.107 210.585C450.613 209.597 450.366 208.435 450.366 207.099V198.148H455.033V206.467C455.033 207.492 455.298 208.288 455.829 208.856C456.36 209.423 457.074 209.707 457.971 209.707C458.886 209.707 459.609 209.423 460.14 208.856C460.671 208.288 460.936 207.492 460.936 206.467V198.148H465.631ZM484.68 200.702C485.229 199.86 485.916 199.201 486.739 198.725C487.563 198.231 488.478 197.983 489.485 197.983V202.953H488.194C487.023 202.953 486.144 203.209 485.559 203.722C484.973 204.216 484.68 205.094 484.68 206.357V213.468H479.985V198.148H484.68V200.702ZM518.578 205.781C518.578 204.207 518.871 202.825 519.456 201.635C520.06 200.445 520.875 199.53 521.9 198.89C522.925 198.249 524.069 197.929 525.332 197.929C526.338 197.929 527.254 198.139 528.077 198.56C528.919 198.981 529.578 199.548 530.054 200.262V193.151H534.749V213.468H530.054V211.272C529.615 212.004 528.983 212.59 528.16 213.029C527.354 213.468 526.412 213.688 525.332 213.688C524.069 213.688 522.925 213.368 521.9 212.727C520.875 212.068 520.06 211.144 519.456 209.954C518.871 208.746 518.578 207.355 518.578 205.781ZM530.054 205.808C530.054 204.637 529.725 203.712 529.066 203.035C528.425 202.358 527.638 202.019 526.704 202.019C525.771 202.019 524.975 202.358 524.316 203.035C523.675 203.694 523.355 204.609 523.355 205.781C523.355 206.952 523.675 207.886 524.316 208.581C524.975 209.258 525.771 209.597 526.704 209.597C527.638 209.597 528.425 209.258 529.066 208.581C529.725 207.904 530.054 206.98 530.054 205.808ZM553.822 200.702C554.371 199.86 555.058 199.201 555.881 198.725C556.705 198.231 557.62 197.983 558.627 197.983V202.953H557.337C556.165 202.953 555.287 203.209 554.701 203.722C554.115 204.216 553.822 205.094 553.822 206.357V213.468H549.127V198.148H553.822V200.702ZM586.295 205.561C586.295 206 586.267 206.458 586.212 206.934H575.587C575.66 207.886 575.962 208.618 576.493 209.13C577.042 209.625 577.71 209.872 578.497 209.872C579.669 209.872 580.483 209.377 580.941 208.389H585.938C585.681 209.396 585.215 210.302 584.538 211.107C583.879 211.912 583.046 212.544 582.039 213.002C581.032 213.459 579.907 213.688 578.662 213.688C577.161 213.688 575.825 213.368 574.654 212.727C573.482 212.086 572.567 211.171 571.908 209.981C571.249 208.792 570.92 207.401 570.92 205.808C570.92 204.216 571.24 202.825 571.881 201.635C572.54 200.445 573.455 199.53 574.626 198.89C575.798 198.249 577.143 197.929 578.662 197.929C580.145 197.929 581.463 198.24 582.616 198.862C583.769 199.484 584.666 200.372 585.306 201.525C585.965 202.678 586.295 204.024 586.295 205.561ZM581.49 204.326C581.49 203.52 581.215 202.88 580.666 202.404C580.117 201.928 579.431 201.69 578.607 201.69C577.82 201.69 577.152 201.919 576.603 202.376C576.072 202.834 575.743 203.484 575.615 204.326H581.49ZM598.82 205.781C598.82 204.207 599.113 202.825 599.699 201.635C600.303 200.445 601.117 199.53 602.142 198.89C603.167 198.249 604.311 197.929 605.574 197.929C606.654 197.929 607.597 198.148 608.402 198.587C609.226 199.027 609.857 199.603 610.296 200.317V198.148H614.991V213.468H610.296V211.299C609.839 212.013 609.198 212.59 608.375 213.029C607.569 213.468 606.627 213.688 605.547 213.688C604.302 213.688 603.167 213.368 602.142 212.727C601.117 212.068 600.303 211.144 599.699 209.954C599.113 208.746 598.82 207.355 598.82 205.781ZM610.296 205.808C610.296 204.637 609.967 203.712 609.308 203.035C608.667 202.358 607.88 202.019 606.947 202.019C606.013 202.019 605.217 202.358 604.558 203.035C603.918 203.694 603.597 204.609 603.597 205.781C603.597 206.952 603.918 207.886 604.558 208.581C605.217 209.258 606.013 209.597 606.947 209.597C607.88 209.597 608.667 209.258 609.308 208.581C609.967 207.904 610.296 206.98 610.296 205.808ZM648.918 197.983C650.822 197.983 652.332 198.56 653.448 199.713C654.583 200.866 655.15 202.468 655.15 204.518V213.468H650.483V205.149C650.483 204.161 650.218 203.401 649.687 202.871C649.174 202.321 648.46 202.047 647.545 202.047C646.63 202.047 645.907 202.321 645.376 202.871C644.864 203.401 644.608 204.161 644.608 205.149V213.468H639.94V205.149C639.94 204.161 639.675 203.401 639.144 202.871C638.631 202.321 637.918 202.047 637.002 202.047C636.087 202.047 635.364 202.321 634.833 202.871C634.321 203.401 634.065 204.161 634.065 205.149V213.468H629.37V198.148H634.065V200.07C634.541 199.429 635.163 198.926 635.932 198.56C636.7 198.176 637.57 197.983 638.54 197.983C639.693 197.983 640.718 198.231 641.615 198.725C642.53 199.219 643.244 199.924 643.756 200.839C644.287 199.997 645.01 199.31 645.925 198.78C646.841 198.249 647.838 197.983 648.918 197.983ZM675.648 213.688C674.312 213.688 673.122 213.459 672.079 213.002C671.036 212.544 670.212 211.922 669.608 211.135C669.004 210.329 668.666 209.432 668.592 208.444H673.232C673.287 208.975 673.534 209.405 673.974 209.734C674.413 210.064 674.953 210.229 675.593 210.229C676.179 210.229 676.628 210.119 676.939 209.899C677.268 209.661 677.433 209.359 677.433 208.993C677.433 208.554 677.204 208.233 676.747 208.032C676.289 207.812 675.548 207.575 674.523 207.318C673.424 207.062 672.509 206.797 671.777 206.522C671.045 206.229 670.414 205.781 669.883 205.177C669.352 204.554 669.087 203.722 669.087 202.678C669.087 201.8 669.324 201.004 669.8 200.29C670.295 199.558 671.008 198.981 671.942 198.56C672.894 198.139 674.019 197.929 675.319 197.929C677.241 197.929 678.751 198.404 679.849 199.356C680.966 200.308 681.606 201.571 681.771 203.145H677.433C677.36 202.614 677.122 202.193 676.719 201.882C676.335 201.571 675.822 201.415 675.182 201.415C674.633 201.415 674.212 201.525 673.919 201.745C673.626 201.946 673.479 202.23 673.479 202.596C673.479 203.035 673.708 203.365 674.166 203.584C674.642 203.804 675.374 204.024 676.362 204.243C677.497 204.536 678.421 204.829 679.135 205.122C679.849 205.396 680.471 205.854 681.002 206.495C681.551 207.117 681.835 207.959 681.853 209.021C681.853 209.917 681.597 210.723 681.085 211.437C680.59 212.132 679.867 212.681 678.916 213.084C677.982 213.487 676.893 213.688 675.648 213.688ZM711.574 205.808C711.574 204.216 711.895 202.825 712.535 201.635C713.194 200.445 714.1 199.53 715.253 198.89C716.425 198.249 717.761 197.929 719.262 197.929C721.184 197.929 722.785 198.432 724.067 199.439C725.366 200.445 726.217 201.864 726.62 203.694H721.623C721.202 202.523 720.388 201.937 719.18 201.937C718.319 201.937 717.633 202.276 717.12 202.953C716.608 203.612 716.352 204.564 716.352 205.808C716.352 207.053 716.608 208.014 717.12 208.691C717.633 209.35 718.319 209.679 719.18 209.679C720.388 209.679 721.202 209.094 721.623 207.922H726.62C726.217 209.716 725.366 211.125 724.067 212.15C722.767 213.175 721.165 213.688 719.262 213.688C717.761 213.688 716.425 213.368 715.253 212.727C714.1 212.086 713.194 211.171 712.535 209.981C711.895 208.792 711.574 207.401 711.574 205.808ZM747.087 213.688C745.586 213.688 744.232 213.368 743.024 212.727C741.834 212.086 740.891 211.171 740.196 209.981C739.518 208.792 739.18 207.401 739.18 205.808C739.18 204.234 739.528 202.852 740.223 201.662C740.919 200.454 741.87 199.53 743.079 198.89C744.287 198.249 745.641 197.929 747.142 197.929C748.643 197.929 749.997 198.249 751.205 198.89C752.413 199.53 753.365 200.454 754.061 201.662C754.756 202.852 755.104 204.234 755.104 205.808C755.104 207.382 754.747 208.773 754.033 209.981C753.338 211.171 752.377 212.086 751.15 212.727C749.942 213.368 748.588 213.688 747.087 213.688ZM747.087 209.625C747.984 209.625 748.743 209.295 749.366 208.636C750.006 207.977 750.327 207.035 750.327 205.808C750.327 204.582 750.016 203.639 749.393 202.98C748.789 202.321 748.039 201.992 747.142 201.992C746.227 201.992 745.467 202.321 744.863 202.98C744.259 203.621 743.957 204.564 743.957 205.808C743.957 207.035 744.25 207.977 744.836 208.636C745.44 209.295 746.19 209.625 747.087 209.625ZM788.125 197.983C790.029 197.983 791.539 198.56 792.655 199.713C793.79 200.866 794.357 202.468 794.357 204.518V213.468H789.69V205.149C789.69 204.161 789.425 203.401 788.894 202.871C788.381 202.321 787.667 202.047 786.752 202.047C785.837 202.047 785.114 202.321 784.583 202.871C784.071 203.401 783.814 204.161 783.814 205.149V213.468H779.147V205.149C779.147 204.161 778.882 203.401 778.351 202.871C777.838 202.321 777.125 202.047 776.209 202.047C775.294 202.047 774.571 202.321 774.04 202.871C773.528 203.401 773.272 204.161 773.272 205.149V213.468H768.577V198.148H773.272V200.07C773.748 199.429 774.37 198.926 775.139 198.56C775.907 198.176 776.777 197.983 777.747 197.983C778.9 197.983 779.925 198.231 780.822 198.725C781.737 199.219 782.451 199.924 782.963 200.839C783.494 199.997 784.217 199.31 785.132 198.78C786.048 198.249 787.045 197.983 788.125 197.983ZM823.064 205.561C823.064 206 823.037 206.458 822.982 206.934H812.357C812.43 207.886 812.732 208.618 813.263 209.13C813.812 209.625 814.48 209.872 815.267 209.872C816.438 209.872 817.253 209.377 817.711 208.389H822.707C822.451 209.396 821.984 210.302 821.307 211.107C820.648 211.912 819.815 212.544 818.809 213.002C817.802 213.459 816.676 213.688 815.432 213.688C813.931 213.688 812.595 213.368 811.423 212.727C810.252 212.086 809.337 211.171 808.678 209.981C808.019 208.792 807.689 207.401 807.689 205.808C807.689 204.216 808.01 202.825 808.65 201.635C809.309 200.445 810.224 199.53 811.396 198.89C812.567 198.249 813.913 197.929 815.432 197.929C816.914 197.929 818.232 198.24 819.385 198.862C820.538 199.484 821.435 200.372 822.076 201.525C822.735 202.678 823.064 204.024 823.064 205.561ZM818.26 204.326C818.26 203.52 817.985 202.88 817.436 202.404C816.887 201.928 816.201 201.69 815.377 201.69C814.59 201.69 813.922 201.919 813.373 202.376C812.842 202.834 812.512 203.484 812.384 204.326H818.26ZM861.862 209.487V213.468H859.474C857.771 213.468 856.444 213.056 855.493 212.233C854.541 211.391 854.065 210.027 854.065 208.142V202.047H852.198V198.148H854.065V194.414H858.76V198.148H861.835V202.047H858.76V208.197C858.76 208.654 858.87 208.984 859.089 209.185C859.309 209.387 859.675 209.487 860.187 209.487H861.862ZM880.154 200.702C880.703 199.86 881.39 199.201 882.213 198.725C883.037 198.231 883.952 197.983 884.959 197.983V202.953H883.669C882.497 202.953 881.619 203.209 881.033 203.722C880.447 204.216 880.154 205.094 880.154 206.357V213.468H875.459V198.148H880.154V200.702ZM913.313 198.148V213.468H908.618V211.382C908.142 212.059 907.492 212.608 906.669 213.029C905.863 213.432 904.967 213.633 903.978 213.633C902.807 213.633 901.773 213.377 900.876 212.864C899.979 212.333 899.283 211.574 898.789 210.585C898.295 209.597 898.048 208.435 898.048 207.099V198.148H902.715V206.467C902.715 207.492 902.981 208.288 903.511 208.856C904.042 209.423 904.756 209.707 905.653 209.707C906.568 209.707 907.291 209.423 907.822 208.856C908.353 208.288 908.618 207.492 908.618 206.467V198.148H913.313ZM942.109 205.561C942.109 206 942.081 206.458 942.026 206.934H931.401C931.474 207.886 931.776 208.618 932.307 209.13C932.856 209.625 933.524 209.872 934.311 209.872C935.483 209.872 936.297 209.377 936.755 208.389H941.752C941.496 209.396 941.029 210.302 940.352 211.107C939.693 211.912 938.86 212.544 937.853 213.002C936.847 213.459 935.721 213.688 934.476 213.688C932.975 213.688 931.639 213.368 930.468 212.727C929.296 212.086 928.381 211.171 927.722 209.981C927.063 208.792 926.734 207.401 926.734 205.808C926.734 204.216 927.054 202.825 927.695 201.635C928.354 200.445 929.269 199.53 930.44 198.89C931.612 198.249 932.957 197.929 934.476 197.929C935.959 197.929 937.277 198.24 938.43 198.862C939.583 199.484 940.48 200.372 941.12 201.525C941.779 202.678 942.109 204.024 942.109 205.561ZM937.304 204.326C937.304 203.52 937.03 202.88 936.48 202.404C935.931 201.928 935.245 201.69 934.421 201.69C933.634 201.69 932.966 201.919 932.417 202.376C931.886 202.834 931.557 203.484 931.429 204.326H937.304Z" fill="black"/>
</svg>
